<?xml version="1.0" standalone="no"?>
<!DOCTYPE svg PUBLIC "-//W3C//DTD SVG 20010904//EN"
 "http://www.w3.org/TR/2001/REC-SVG-20010904/DTD/svg10.dtd">
<svg version="1.0" xmlns="http://www.w3.org/2000/svg"
 width="111.000000pt" height="111.000000pt" viewBox="0 0 111.000000 111.000000"
 preserveAspectRatio="xMidYMid meet">
<metadata>
Created by potrace 1.14, written by Peter Selinger 2001-2017
</metadata>
<g transform="translate(0.000000,111.000000) scale(0.100000,-0.100000)"
fill="#000000" stroke="none">
<path d="M94 993 c3 -10 26 -87 51 -172 25 -85 47 -156 49 -159 5 -4 168 163
173 176 3 7 -259 172 -272 172 -3 0 -4 -8 -1 -17z"/>
<path d="M995 1001 c-6 -6 -65 -43 -133 -84 l-123 -75 88 -86 c57 -55 90 -81
94 -73 8 14 99 309 99 320 0 10 -14 9 -25 -2z"/>
<path d="M389 813 c-16 -14 -28 -27 -26 -30 5 -5 28 -9 92 -17 28 -4 76 -11
108 -17 33 -6 73 -12 90 -14 50 -6 99 -15 141 -26 21 -6 40 -8 42 -6 3 2 -24
32 -58 66 -55 53 -68 61 -103 61 -22 1 -89 3 -148 5 -103 3 -109 2 -138 -22z"/>
<path d="M273 699 c-37 -38 -70 -75 -75 -83 -6 -11 14 -25 86 -62 l94 -48 124
17 c67 9 133 19 144 21 12 2 39 7 60 10 22 3 50 8 64 11 14 2 43 7 65 10 51 7
84 38 69 63 -6 9 -22 22 -35 29 -27 13 -224 50 -360 68 -25 3 -73 12 -107 19
l-62 13 -67 -68z"/>
<path d="M196 544 c-3 -9 -6 -67 -6 -129 l0 -114 95 -58 c53 -32 108 -65 123
-73 36 -19 247 -23 277 -5 11 7 39 25 63 39 l43 27 -58 38 c-151 98 -497 291
-521 291 -5 0 -13 -7 -16 -16z"/>
<path d="M785 544 c-44 -7 -100 -16 -125 -19 -74 -10 -234 -36 -237 -39 -1 -1
46 -30 105 -63 59 -34 148 -87 197 -118 l90 -57 45 25 45 26 3 116 c3 115 -4
146 -32 144 -6 -1 -47 -7 -91 -15z"/>
<path d="M480 131 c0 -3 15 -16 33 -27 33 -21 33 -21 71 -2 21 11 36 22 33 24
-7 8 -137 12 -137 5z"/>
</g>
</svg>
